<svg xmlns="http://www.w3.org/2000/svg" width="1200" height="720" viewBox="0 0 1200 720">
<rect width="100%" height="100%" fill="#ffffff"/>
<text x="600.0" y="38" text-anchor="middle" font-size="26" font-family="Segoe UI">AKS vs Miller-Rabin</text>
<text x="600.0" y="64" text-anchor="middle" font-size="13" fill="#555555" font-family="Segoe UI">AKS plotted against both Miller-Rabin variants.</text>
<line x1="90" y1="90" x2="90" y2="630" stroke="#222222" stroke-width="1.5"/>
<line x1="90" y1="630" x2="1160" y2="630" stroke="#222222" stroke-width="1.5"/>
<text x="600.0" y="695" text-anchor="middle" font-size="16" font-family="Segoe UI">Prime value (x)</text>
<text x="28" y="360.0" text-anchor="middle" font-size="16" font-family="Segoe UI" transform="rotate(-90 28,360.0)">Cumulative time (ms)</text>
<line x1="90" y1="630.00" x2="1160" y2="630.00" stroke="#e7e7e7"/>
<text x="78" y="635.00" text-anchor="end" font-size="12" font-family="Consolas">0.0</text>
<line x1="90" y1="540.00" x2="1160" y2="540.00" stroke="#e7e7e7"/>
<text x="78" y="545.00" text-anchor="end" font-size="12" font-family="Consolas">73946.1</text>
<line x1="90" y1="450.00" x2="1160" y2="450.00" stroke="#e7e7e7"/>
<text x="78" y="455.00" text-anchor="end" font-size="12" font-family="Consolas">147892.2</text>
<line x1="90" y1="360.00" x2="1160" y2="360.00" stroke="#e7e7e7"/>
<text x="78" y="365.00" text-anchor="end" font-size="12" font-family="Consolas">221838.3</text>
<line x1="90" y1="270.00" x2="1160" y2="270.00" stroke="#e7e7e7"/>
<text x="78" y="275.00" text-anchor="end" font-size="12" font-family="Consolas">295784.4</text>
<line x1="90" y1="180.00" x2="1160" y2="180.00" stroke="#e7e7e7"/>
<text x="78" y="185.00" text-anchor="end" font-size="12" font-family="Consolas">369730.5</text>
<line x1="90" y1="90.00" x2="1160" y2="90.00" stroke="#e7e7e7"/>
<text x="78" y="95.00" text-anchor="end" font-size="12" font-family="Consolas">443676.6</text>
<line x1="90.00" y1="90" x2="90.00" y2="630" stroke="#f0f0f0"/>
<text x="90.00" y="654" text-anchor="middle" font-size="12" font-family="Consolas">0</text>
<line x1="268.33" y1="90" x2="268.33" y2="630" stroke="#f0f0f0"/>
<text x="268.33" y="654" text-anchor="middle" font-size="12" font-family="Consolas">90</text>
<line x1="446.67" y1="90" x2="446.67" y2="630" stroke="#f0f0f0"/>
<text x="446.67" y="654" text-anchor="middle" font-size="12" font-family="Consolas">180</text>
<line x1="625.00" y1="90" x2="625.00" y2="630" stroke="#f0f0f0"/>
<text x="625.00" y="654" text-anchor="middle" font-size="12" font-family="Consolas">270</text>
<line x1="803.33" y1="90" x2="803.33" y2="630" stroke="#f0f0f0"/>
<text x="803.33" y="654" text-anchor="middle" font-size="12" font-family="Consolas">360</text>
<line x1="981.67" y1="90" x2="981.67" y2="630" stroke="#f0f0f0"/>
<text x="981.67" y="654" text-anchor="middle" font-size="12" font-family="Consolas">450</text>
<line x1="1160.00" y1="90" x2="1160.00" y2="630" stroke="#f0f0f0"/>
<text x="1160.00" y="654" text-anchor="middle" font-size="12" font-family="Consolas">541</text>
<line x1="880" y1="112" x2="908" y2="112" stroke="#2e8b57" stroke-width="3"/>
<text x="918" y="116" font-size="13" font-family="Segoe UI">AKS</text>
<polyline fill="none" stroke="#2e8b57" stroke-width="2.4" points="93.96,630.00 95.93,630.00 99.89,630.00 103.84,630.00 111.76,630.00 115.71,630.00 123.62,630.00 127.58,630.00 135.49,630.00 147.36,630.00 151.31,629.96 163.18,629.96 171.09,629.96 175.05,629.96 182.96,629.85 194.82,629.63 206.69,629.28 210.65,628.90 222.51,628.49 230.43,628.06 234.38,627.68 246.25,627.25 254.16,626.72 266.03,626.04 281.85,625.17 289.76,624.35 293.72,623.65 301.63,622.70 305.58,622.00 313.49,621.17 341.18,620.21 349.09,618.87 360.96,617.33 364.92,615.84 384.70,614.14 388.65,612.21 400.52,610.10 412.38,608.21 420.30,605.57 432.16,603.50 444.03,601.05 447.99,598.28 467.76,595.72 471.72,593.35 479.63,591.12 483.59,587.92 507.32,584.63 531.05,580.91 538.96,575.25 542.92,572.66 550.83,570.03 562.70,566.96 566.65,563.97 586.43,560.95 598.30,557.66 610.17,554.26 622.03,550.54 625.99,546.94 637.86,540.70 645.77,536.62 649.72,532.33 669.50,526.03 697.19,519.50 705.10,512.51 709.06,504.42 716.97,493.19 744.66,481.89 756.52,474.08 776.30,465.40 780.26,454.01 788.17,443.16 800.04,432.64 815.86,424.68 827.73,412.78 839.59,404.12 847.50,393.21 859.37,386.91 875.19,378.62 883.11,368.13 898.93,357.15 918.71,347.84 922.66,340.03 942.44,330.06 946.40,321.55 958.26,312.42 966.17,295.05 978.04,286.16 993.86,276.64 1001.77,266.76 1005.73,250.82 1013.64,240.63 1037.38,222.45 1053.20,210.23 1061.11,198.57 1076.93,184.64 1084.84,172.72 1096.71,137.07 1120.44,122.71 1124.40,106.90 1160.00,90.00"/>
<line x1="880" y1="136" x2="908" y2="136" stroke="#c0392b" stroke-width="3"/>
<text x="918" y="140" font-size="13" font-family="Segoe UI">Miller-Rabin Ordinary</text>
<polyline fill="none" stroke="#c0392b" stroke-width="2.4" points="93.96,630.00 95.93,630.00 99.89,630.00 103.84,630.00 111.76,630.00 115.71,630.00 123.62,630.00 127.58,630.00 135.49,630.00 147.36,630.00 151.31,630.00 163.18,630.00 171.09,630.00 175.05,630.00 182.96,630.00 194.82,630.00 206.69,630.00 210.65,630.00 222.51,630.00 230.43,630.00 234.38,630.00 246.25,630.00 254.16,630.00 266.03,630.00 281.85,630.00 289.76,630.00 293.72,630.00 301.63,630.00 305.58,629.99 313.49,629.99 341.18,629.99 349.09,629.99 360.96,629.99 364.92,629.99 384.70,629.99 388.65,629.99 400.52,629.99 412.38,629.99 420.30,629.99 432.16,629.99 444.03,629.99 447.99,629.99 467.76,629.99 471.72,629.99 479.63,629.99 483.59,629.99 507.32,629.99 531.05,629.99 538.96,629.99 542.92,629.99 550.83,629.99 562.70,629.99 566.65,629.99 586.43,629.99 598.30,629.99 610.17,629.99 622.03,629.99 625.99,629.99 637.86,629.99 645.77,629.99 649.72,629.99 669.50,629.99 697.19,629.99 705.10,629.99 709.06,629.99 716.97,629.99 744.66,629.99 756.52,629.99 776.30,629.98 780.26,629.98 788.17,629.98 800.04,629.98 815.86,629.98 827.73,629.98 839.59,629.98 847.50,629.98 859.37,629.98 875.19,629.98 883.11,629.98 898.93,629.98 918.71,629.98 922.66,629.98 942.44,629.98 946.40,629.98 958.26,629.98 966.17,629.98 978.04,629.98 993.86,629.98 1001.77,629.98 1005.73,629.98 1013.64,629.98 1037.38,629.98 1053.20,629.98 1061.11,629.98 1076.93,629.98 1084.84,629.98 1096.71,629.98 1120.44,629.98 1124.40,629.98 1160.00,629.98"/>
<line x1="880" y1="160" x2="908" y2="160" stroke="#1f78b4" stroke-width="3"/>
<text x="918" y="164" font-size="13" font-family="Segoe UI">Miller-Rabin Fast</text>
<polyline fill="none" stroke="#1f78b4" stroke-width="2.4" points="93.96,630.00 95.93,630.00 99.89,630.00 103.84,630.00 111.76,630.00 115.71,630.00 123.62,630.00 127.58,630.00 135.49,630.00 147.36,630.00 151.31,630.00 163.18,630.00 171.09,630.00 175.05,630.00 182.96,630.00 194.82,630.00 206.69,630.00 210.65,630.00 222.51,630.00 230.43,630.00 234.38,630.00 246.25,630.00 254.16,630.00 266.03,630.00 281.85,630.00 289.76,630.00 293.72,630.00 301.63,630.00 305.58,630.00 313.49,630.00 341.18,630.00 349.09,630.00 360.96,630.00 364.92,630.00 384.70,630.00 388.65,630.00 400.52,630.00 412.38,630.00 420.30,630.00 432.16,630.00 444.03,629.99 447.99,629.99 467.76,629.99 471.72,629.99 479.63,629.99 483.59,629.99 507.32,629.99 531.05,629.99 538.96,629.99 542.92,629.99 550.83,629.99 562.70,629.99 566.65,629.99 586.43,629.99 598.30,629.99 610.17,629.99 622.03,629.99 625.99,629.99 637.86,629.99 645.77,629.99 649.72,629.99 669.50,629.99 697.19,629.99 705.10,629.99 709.06,629.99 716.97,629.99 744.66,629.99 756.52,629.99 776.30,629.99 780.26,629.99 788.17,629.99 800.04,629.99 815.86,629.99 827.73,629.99 839.59,629.99 847.50,629.99 859.37,629.99 875.19,629.99 883.11,629.99 898.93,629.99 918.71,629.99 922.66,629.99 942.44,629.99 946.40,629.99 958.26,629.99 966.17,629.99 978.04,629.99 993.86,629.99 1001.77,629.99 1005.73,629.99 1013.64,629.99 1037.38,629.99 1053.20,629.99 1061.11,629.99 1076.93,629.99 1084.84,629.99 1096.71,629.98 1120.44,629.98 1124.40,629.98 1160.00,629.98"/>
</svg>